<?xml version="1.0" encoding="UTF-8" standalone="no"?>
<!-- Created with Inkscape (http://www.inkscape.org/) -->

<svg
   width="64.336678mm"
   height="55.717197mm"
   viewBox="0 0 64.336678 55.717197"
   version="1.1"
   id="svg1"
   xmlns="http://www.w3.org/2000/svg"
   xmlns:svg="http://www.w3.org/2000/svg">
  <defs
     id="defs1" />
  <g
     id="layer1"
     transform="translate(-65.770655,-44.861105)">
    <path
       style="fill:#c70f09;fill-opacity:1;stroke-width:0.264583"
       id="path20"
       d="M 78.934208,54.60099 62.850039,82.459589 H 30.6817 L 14.59753,54.60099 30.6817,26.742392 l 32.168339,0 z"
       transform="translate(51.173125,18.118713)" />
    <path
       style="font-weight:800;font-stretch:condensed;font-size:3.175px;font-family:'Saira Condensed';-inkscape-font-specification:'Saira Condensed,  Ultra-Bold Condensed';letter-spacing:0px;white-space:pre;inline-size:26.5329;stroke-width:1.05833"
       d="m 71.102242,77.109972 v -8.7376 h 4.3561 v 1.7399 h -2.3241 v 1.7145 h 2.0066 v 1.7399 h -2.0066 v 1.8034 h 2.3241 v 1.7399 z m 11.341096,0 v -6.1849 h -0.1016 l -1.0287,6.1849 h -1.8034 l -1.016,-6.1849 h -0.1016 v 6.1849 h -1.9177 v -8.7376 h 3.048 l 0.889,5.6642 h 0.1016 l 0.889,-5.6642 h 2.9845 v 8.7376 z m 3.111512,0 v -8.7376 h 4.3561 v 1.7399 h -2.3241 v 1.7145 h 2.0066 v 1.7399 h -2.0066 v 1.8034 h 2.3241 v 1.7399 z m 8.839196,0 -0.7747,-2.9464 h -0.6477 v 2.9464 h -2.032 v -8.7376 h 3.0734 q 0.9525,0 1.4478,0.31748 0.4953,0.31748 0.6604,0.9271 0.16508,0.6096 0.16508,1.651 0,0.9652 -0.16508,1.5875 -0.1524,0.6096 -0.635,0.9271 l 1.0033,3.3274 z m -0.889,-4.6355 q 0.36828,0 0.508,-0.06348 0.13972,-0.0762 0.19048,-0.3048 0.0508,-0.24132 0.0508,-0.8255 0,-0.5842 -0.0508,-0.8128 -0.038,-0.2286 -0.19048,-0.29212 -0.13972,-0.0762 -0.508,-0.0762 h -0.5334 v 2.3749 z m 6.400804,1.1303 v -1.6637 h 2.4892 v 4.9911 q -0.4572,0.127 -1.1303,0.2032 -0.6604,0.0762 -1.2319,0.0762 -1.2319,0 -1.8415,-0.36828 -0.5969,-0.36832 -0.8382,-1.2954 -0.2286,-0.9271 -0.2286,-2.8067 0,-1.8542 0.24128,-2.7813 0.254,-0.9398 0.889,-1.3081 0.635,-0.381 1.9177,-0.381 0.5461,0 1.1811,0.0762 0.635,0.0762 1.016,0.19048 v 1.6002 q -0.4064,-0.0508 -0.889,-0.08892 -0.4699,-0.038 -0.7112,-0.038 -0.8382,0 -1.1303,0.127 -0.29212,0.127 -0.39368,0.6604 -0.1016,0.5207 -0.1016,1.9431 0,1.3335 0.0508,1.8796 0.06352,0.5461 0.254,0.7366 0.19048,0.1778 0.6477,0.1778 0.21592,0 0.4699,-0.0252 v -1.905 z m 3.5941,3.5052 v -8.7376 h 4.3561 v 1.7399 h -2.3241 v 1.7145 h 2.0066 v 1.7399 h -2.0066 v 1.8034 h 2.3241 v 1.7399 z m 9.0678,0 -1.7018,-4.3053 h -0.0508 v 4.3053 h -1.9431 v -8.7376 h 1.9558 l 1.5367,3.8481 h 0.0762 v -3.8481 h 1.9304 v 8.7376 z m 7.11202,-0.127 q -0.2796,0.1016 -0.72392,0.16508 -0.44448,0.06348 -0.82548,0.06348 -1.23191,0 -1.81611,-0.4064 -0.5715,-0.4064 -0.762,-1.3208 -0.1778,-0.9144 -0.1778,-2.7432 0,-1.8161 0.19048,-2.7305 0.19048,-0.9144 0.7747,-1.3208 0.5842,-0.4191 1.79071,-0.4191 0.4318,0 0.85088,0.06348 0.4318,0.06348 0.67312,0.1524 v 1.6002 q -0.69852,-0.0762 -1.1176,-0.0762 -0.5842,0 -0.80012,0.16508 -0.2032,0.1524 -0.26668,0.6604 -0.0508,0.4953 -0.0508,1.905 0,1.4097 0.0508,1.9177 0.0635,0.4953 0.26668,0.6604 0.216,0.1524 0.80012,0.1524 0.6858,0 1.143,-0.0762 z m 2.34948,0.127 v -2.9591 l -2.01928,-5.7785 h 2.0574 l 0.9652,3.6576 h 0.1272 l 0.9144,-3.6576 h 2.0066 l -2.01932,5.7785 v 2.9591 z"
       id="text1"
       aria-label="EMERGENCY" />
    <path
       style="fill:#000000;fill-opacity:1;stroke-width:0.264583"
       id="path1"
       d="m 109.81268,63.604946 -22.097653,0 11.048828,-19.137131 z"
       transform="translate(-1.2854493,2.3260512)" />
    <path
       style="fill:#c70f09;fill-opacity:1;stroke:#000000;stroke-width:0;stroke-linecap:butt;stroke-linejoin:round;stroke-dasharray:none;stroke-dashoffset:0;stroke-opacity:1"
       id="path19"
       d="m 93.438423,61.256678 4.407892,7.634694 -8.815784,-10e-7 z"
       transform="matrix(1.1397339,0,0,1.2050482,-8.9553382,-15.932491)" />
    <path
       style="fill:#000000;fill-opacity:1;stroke-width:0.264583"
       id="path1-6"
       d="m 109.81268,63.604946 -22.097653,0 11.048828,-19.137131 z"
       transform="rotate(180,98.117389,71.524611)" />
    <path
       style="fill:#c70f09;fill-opacity:1;stroke:#000000;stroke-width:0;stroke-linecap:butt;stroke-linejoin:round;stroke-dasharray:none;stroke-dashoffset:0;stroke-opacity:1"
       id="path19-8"
       d="m 93.438423,61.256678 4.407892,7.634694 -8.815784,-10e-7 z"
       transform="matrix(-1.1397339,0,0,-1.2050482,203.90467,161.30776)" />
    <g
       id="path11-2"
       style="opacity:1"
       transform="matrix(0.90183395,0,0,0.90183395,21.931521,39.933929)">
      <path
         style="baseline-shift:baseline;display:inline;overflow:visible;vector-effect:none;fill:#000f09;stroke-linejoin:round;stroke-dasharray:0.597671, 1.19534;stroke-dashoffset:0.119534;enable-background:accumulate;stop-color:#000000;stop-opacity:1"
         d="M 86.399055,65.122234 97.355981,46.024131"
         id="path37" />
      <path
         style="baseline-shift:baseline;display:inline;overflow:visible;vector-effect:none;stroke-linejoin:round;stroke-dasharray:0.597671, 1.19534;stroke-dashoffset:0.119534;enable-background:accumulate;stop-color:#000000;stop-opacity:1"
         d="m 96.814453,46.365234 -0.267578,0.46875 0.517578,0.296875 0.269531,-0.466797 z m -0.804687,1.404297 -0.267579,0.466797 0.517579,0.296875 0.269531,-0.466797 z m -0.804688,1.402344 -0.267578,0.466797 0.517578,0.296875 0.269531,-0.466797 z m -0.804687,1.402344 -0.267579,0.466797 0.519532,0.296875 0.267578,-0.466797 z m -0.804688,1.402343 -0.267578,0.466797 0.519531,0.298828 0.267578,-0.46875 z m -0.804687,1.402344 -0.267579,0.466797 0.519532,0.298828 0.267578,-0.46875 z M 91.986328,54.78125 91.71875,55.25 l 0.519531,0.296875 0.267578,-0.46875 z m -0.804687,1.402344 -0.267579,0.46875 0.519532,0.296875 0.267578,-0.466797 z m -0.804688,1.402343 -0.267578,0.46875 0.519531,0.296875 0.267578,-0.466796 z m -0.804687,1.402344 -0.267579,0.46875 0.519532,0.296875 0.267578,-0.466797 z M 88.767578,60.392578 88.5,60.859375 l 0.519531,0.296875 0.267578,-0.466797 z m -0.804687,1.402344 -0.267579,0.466797 0.519532,0.296875 0.267578,-0.466797 z m -0.804688,1.402344 -0.267578,0.466796 0.519531,0.296875 0.267578,-0.466796 z m -0.804687,1.402343 -0.212891,0.373047 0.517578,0.298828 0.214844,-0.375 z"
         id="path38" />
    </g>
    <path
       id="path37-0"
       style="stroke:#000000;stroke-width:0;stroke-linejoin:round"
       d="m 100.78553,98.571113 a 0.91817808,0.91817808 0 0 1 -0.918182,0.918178 0.91817808,0.91817808 0 0 1 -0.918178,-0.918178 0.91817808,0.91817808 0 0 1 0.918178,-0.918178 0.91817808,0.91817808 0 0 1 0.918182,0.918178 z" />
    <path
       id="path37-6-9"
       style="stroke:#000000;stroke-width:0;stroke-linejoin:round"
       d="m 110.50759,81.608985 a 0.91817808,0.91817808 0 0 1 -0.91817,0.918178 0.91817808,0.91817808 0 0 1 -0.91818,-0.918178 0.91817808,0.91817808 0 0 1 0.91818,-0.918178 0.91817808,0.91817808 0 0 1 0.91817,0.918178 z" />
    <g
       id="path11-2-2"
       style="opacity:1"
       transform="matrix(0.90183395,0,0,0.90183395,6.9889038,5.8547037)">
      <path
         style="baseline-shift:baseline;display:inline;overflow:visible;vector-effect:none;fill:#000f09;stroke-linejoin:round;stroke-dasharray:0.597671, 1.19534;stroke-dashoffset:0.119534;enable-background:accumulate;stop-color:#000000;stop-opacity:1"
         d="M 86.399055,65.122234 97.355981,46.024131"
         id="path39" />
      <path
         style="baseline-shift:baseline;display:inline;overflow:visible;vector-effect:none;stroke-linejoin:round;stroke-dasharray:0.597671, 1.19534;stroke-dashoffset:0.119534;enable-background:accumulate;stop-color:#000000;stop-opacity:1"
         d="m 96.814453,46.365234 -0.267578,0.46875 0.517578,0.296875 0.269531,-0.466797 z m -0.804687,1.404297 -0.267579,0.466797 0.517579,0.296875 0.269531,-0.466797 z m -0.804688,1.402344 -0.267578,0.466797 0.517578,0.296875 0.269531,-0.466797 z m -0.804687,1.402344 -0.267579,0.466797 0.519532,0.296875 0.267578,-0.466797 z m -0.804688,1.402343 -0.267578,0.466797 0.519531,0.298828 0.267578,-0.46875 z m -0.804687,1.402344 -0.267579,0.466797 0.519532,0.298828 0.267578,-0.46875 z M 91.986328,54.78125 91.71875,55.25 l 0.519531,0.296875 0.267578,-0.46875 z m -0.804687,1.402344 -0.267579,0.46875 0.519532,0.296875 0.267578,-0.466797 z m -0.804688,1.402343 -0.267578,0.46875 0.519531,0.296875 0.267578,-0.466796 z m -0.804687,1.402344 -0.267579,0.46875 0.519532,0.296875 0.267578,-0.466797 z M 88.767578,60.392578 88.5,60.859375 l 0.519531,0.296875 0.267578,-0.466797 z m -0.804687,1.402344 -0.267579,0.466797 0.519532,0.296875 0.267578,-0.466797 z m -0.804688,1.402344 -0.267578,0.466796 0.519531,0.296875 0.267578,-0.466796 z m -0.804687,1.402343 -0.212891,0.373047 0.517578,0.298828 0.214844,-0.375 z"
         id="path40" />
    </g>
    <path
       id="path37-0-0"
       style="stroke:#000000;stroke-width:0;stroke-linejoin:round"
       d="m 85.84291,64.491886 a 0.91817808,0.91817808 0 0 1 -0.918178,0.918178 0.91817808,0.91817808 0 0 1 -0.918179,-0.918178 0.91817808,0.91817808 0 0 1 0.918179,-0.918178 0.91817808,0.91817808 0 0 1 0.918178,0.918178 z" />
    <path
       id="path37-6-9-0"
       style="stroke:#000000;stroke-width:0;stroke-linejoin:round"
       d="M 95.564978,47.529759 A 0.91817808,0.91817808 0 0 1 94.6468,48.447937 0.91817808,0.91817808 0 0 1 93.728622,47.529759 0.91817808,0.91817808 0 0 1 94.6468,46.61158 a 0.91817808,0.91817808 0 0 1 0.918178,0.918179 z" />
  </g>
</svg>
